<svg width="85" height="85" viewBox="0 0 85 85" fill="none" xmlns="http://www.w3.org/2000/svg">
<path fill-rule="evenodd" clip-rule="evenodd" d="M21.0592 20.1248C27.5616 13.78 35.666 8.06611 44.4199 8.67421C52.5036 9.23576 56.6423 17.432 62.3111 22.9905C67.6181 28.1943 75.101 32.0189 75.9404 39.5817C76.8249 47.5509 73.0243 56.2292 66.5741 61.3984C60.7245 66.0862 52.872 63.6582 45.5859 63.9078C38.837 64.1389 32.1391 65.7271 26.2293 62.7801C18.1233 58.7379 8.46432 54.0086 7.35335 44.8426C6.20905 35.4016 14.0296 26.9841 21.0592 20.1248Z" fill="#B8BBEB"/>
<circle cx="32" cy="32" r="2" fill="black"/>
<circle cx="57" cy="34" r="2" fill="black"/>
<path d="M32 48.7097C42.0497 52.1886 47.5665 52.5779 57.0099 48" stroke="black" stroke-width="3" stroke-linecap="round"/>
</svg>
