<svg width="138" height="116" viewBox="0 0 138 116" fill="none" xmlns="http://www.w3.org/2000/svg">
<path fill-rule="evenodd" clip-rule="evenodd" d="M68.0665 1.43604C85.1686 -2.20306 104.175 0.999576 117.429 11.8981C131.429 23.4096 137.087 41.2376 137.85 58.8175C138.649 77.2451 136.676 98.0741 121.675 109.773C107.281 120.999 86.6794 113.715 68.0665 113.24C50.3265 112.787 30.7305 118.091 17.2615 107.108C3.25805 95.6886 -2.93651 75.8802 1.32691 58.8175C5.11287 43.6656 24.6115 39.51 36.7623 29.0629C47.74 19.6245 53.6216 4.50972 68.0665 1.43604Z" fill="#BDD3EA"/>
<circle cx="63" cy="41" r="3" fill="black"/>
<circle cx="96" cy="41" r="3" fill="black"/>
<path d="M47.1401 75.2026C55.9814 83.9305 61.51 86.2918 73.3018 81.9532" stroke="black" stroke-width="3" stroke-linecap="round"/>
</svg>
